<svg xmlns="http://www.w3.org/2000/svg"><style>:root svg:not(:target){display:none}</style><svg viewBox="0 0 27 27" fill="none" id="download"><path fill-rule="evenodd" clip-rule="evenodd" d="M1.33 16c.74 0 1.34.6 1.34 1.33v5.34c0 .36.14.69.38.94.26.24.59.39.95.39h18.67c.36 0 .69-.15.94-.39.26-.24.39-.58.39-.94v-5.34a1.34 1.34 0 0 1 2.67 0v5.34a4 4 0 0 1-4 4h-18.67a4 4 0 0 1-4-4v-5.34c0-.73.6-1.33 1.33-1.33Z" fill="currentColor"></path><path fill-rule="evenodd" clip-rule="evenodd" d="m20.95 11.61-6.67 6.67c-.12.12-.27.21-.43.28a.4.4 0 0 1-.18.05.92.92 0 0 1-.34.06.92.92 0 0 1-.33-.06.45.45 0 0 1-.19-.05c-.16-.07-.3-.16-.42-.28l-6.67-6.67a1.34 1.34 0 0 1 0-1.89 1.34 1.34 0 0 1 1.9 0l4.38 4.4v-12.79a1.34 1.34 0 0 1 2.67 0v12.79l4.38-4.4a1.34 1.34 0 0 1 1.9 0c.52.52.52 1.37 0 1.9Z" fill="currentColor"></path></svg><svg viewBox="0 0 143 25" fill="none" id="logo"><path d="M57.51 11.5c0-3.85-1.82-8.82-9.29-8.82h-10.13v17.49h10.13c7.73 0 9.3-5.2 9.3-8.67Zm-12.35 4.3v-8.98h1.43c1.71 0 3.48.56 3.48 4.6 0 3.92-1.9 4.4-3.48 4.4l-1.43-.02Zm20.47-.38c0-2.24 1.59-3.47 3.56-3.47.46.01.92.08 1.37.2v-5.25a5.05 5.05 0 0 0-1.08-.12c-2.22 0-3.64 1.62-4.15 3.27h-.11v-2.97h-6.22v13.09h6.63v-4.75Zm10.67-.06h-5.71v4.84h5.75l-.04-4.84Zm11.15 4.8 2.9-11.38h.18l3.06 11.39h7.6l4.44-17.44h-6.34l-2.24 11.14h-.1l-2.86-11.14h-6.78l-2.93 11.14h-.11l-2.22-11.14h-6.63l4.3 17.44h7.73Zm35.52-4.12h-9.2v-2.72h8.66v-4h-8.66v-2.52h9.06v-4.12h-16.14v17.49h16.32l-.04-4.13Zm19.99-.56c0-2.75-2.33-3.9-4.15-4.15v-.1a4.37 4.37 0 0 0 2.68-1.35 3.94 3.94 0 0 0 1.07-2.67c0-1.63-1.05-4.56-6.84-4.56h-11.1v17.52h10.75c2.35 0 7.63-.25 7.63-4.67l-.04-.02Zm-11.63-9.26h1.82c1.95 0 2.51.96 2.51 1.69 0 .5-.24 1.68-2.67 1.68h-1.66v-3.37Zm0 10.4v-3.57h1.64c.6 0 2.8 0 2.8 1.77 0 .63-.38 1.8-2.65 1.8h-1.79Zm-119.12-8.92 5.4-2.85 5.43 2.88c.13-.35.2-.72.2-1.1 0-2.24-2.51-4.08-5.6-4.08-3.1 0-5.62 1.83-5.62 4.09 0 .36.06.72.19 1.06Zm15.06 3.08 3.41.78-.72 2.14 5.2-2.63-8.38-2.34.5 2.05Zm-4.02 14.22 8.14-9.35-4.34-2.48-3.8 11.83Zm-.55-21.72 1.55 1.55 4.19-4.83h-5.93l2.21 1.3-2.02 1.98Zm3.6 4.12 3.7-.7.77 2.54 1.84-5.53-7.42 2.24 1.1 1.45Zm-22.54 8.25 8.15 9.35-3.79-11.83-4.36 2.48Zm.72-4.09 3.4-.78.5-2.05-8.38 2.34 5.2 2.63-.72-2.14Zm.68-4.87 3.7.71 1.11-1.45-7.42-2.24 1.84 5.53.77-2.55Zm7.3-3.41-2.04-1.99 2.26-1.29h-5.93l4.19 4.86 1.53-1.58Zm2.23 4.75.74 2.63h.04l1-2.8h2.32l1.07 2.8h.03l.6-2.59-2.88-1.6-2.92 1.56Zm10.75 2.7-3.03-1.64-1.09 3.13h-2.7l-1.01-2.88h-.04l-1.02 2.88h-2.72l-1.1-3.13-3.02 1.63s-1.1 3.7 3.1 6.73c1.07.86 2.27 1.56 3.56 2.08l-.18-.53h2.78l-.19.56c1.3-.5 2.5-1.21 3.56-2.08 4.16-3.1 3.12-6.76 3.12-6.76h-.02Zm-6.17 7.37h-3.4l-.37-1.06h4.15l-.38 1.06Zm.71-1.96h-4.77l-.37-1.06h5.5l-.36 1.06Zm.68-1.96h-6.15l-.36-1.05h6.87l-.36 1.05Z" fill="#fff"></path></svg></svg>