<svg xmlns="http://www.w3.org/2000/svg"><style>:root svg:not(:target){display:none}</style><svg viewBox="0 0 27 27" fill="none" id="download"><path fill-rule="evenodd" clip-rule="evenodd" d="M1.33 16c.74 0 1.34.6 1.34 1.33v5.34c0 .36.14.69.38.94.26.24.59.39.95.39h18.67c.36 0 .69-.15.94-.39.26-.24.39-.58.39-.94v-5.34a1.34 1.34 0 0 1 2.67 0v5.34a4 4 0 0 1-4 4h-18.67a4 4 0 0 1-4-4v-5.34c0-.73.6-1.33 1.33-1.33Z" fill="currentColor"></path><path fill-rule="evenodd" clip-rule="evenodd" d="m20.95 11.61-6.67 6.67c-.12.12-.27.21-.43.28a.4.4 0 0 1-.18.05.92.92 0 0 1-.34.06.92.92 0 0 1-.33-.06.45.45 0 0 1-.19-.05c-.16-.07-.3-.16-.42-.28l-6.67-6.67a1.34 1.34 0 0 1 0-1.89 1.34 1.34 0 0 1 1.9 0l4.38 4.4v-12.79a1.34 1.34 0 0 1 2.67 0v12.79l4.38-4.4a1.34 1.34 0 0 1 1.9 0c.52.52.52 1.37 0 1.9Z" fill="currentColor"></path></svg><svg viewBox="0 0 24 24" fill="none" id="habr"><g clip-path="url(#habr_0)"><path d="M0 0h24v24h-24v-24Z" fill="#629FBC"></path><path d="m5.06 10.68.12.19c-.25 0-.51-.03-.56-.14v-.02c.14-.03.26-.04.44-.03Zm1.34.57.07.19h-.15l.04-.18h.04Zm.5 1.36c-.13.12-.23.2-.3.37-.11-.09-.17-.25-.2-.44-.04-.21-.05-.44-.08-.61l.01-.1h.15l.37.7.04.08Zm-.2-1.74a46.35 46.35 0 0 1 .06-.38h.05l-.1.38Zm-.1-1.73.67.18v.03c-.31.23-.6.34-.76.75l.06-.93.03-.03Zm.63-.96c-.05.43.01.62.09.9.12.08.17.13.13.25-.2-.1-.42-.2-.72-.18l-.03-.03c.09-.34.26-.55.39-.82l.14-.12Zm.96-.57h.03c-.1.32-.13 1.05-.3 1.34-.37-.18-.37-.96.06-1.27l.21-.07Zm-.36 2.36.33.34c-.13.4-.37.69-.47 1.13h-.2c-.15-.46.25-1.2.32-1.53l.3.03.11.28-.39-.25Zm.89-2.36c-.04.37.05.57.07.86l-.57.29c.05-.48.15-.8.28-1.14l.22-.01Zm.22-.58h.04l-.06.19h-.13l.1-.11.05-.08Zm.04 1.76-.57.35c.01-.21.28-.5.5-.57l.06.02v.2Zm.38-1.32-.1.58-.11.07a8.4 8.4 0 0 1-.06.06c-.1-.14-.13-.5-.1-.76l.37.05Zm.38-.44v.02l-.15.14c-.1.04-.1.04-.23.03l.05-.19h.33Zm.38-.77-.17.39-.6-.05.01-.03c.24-.1.46-.24.76-.3Zm-.3 1 .05-.04.06.2-.2-.04.08-.12Zm.49.57c-.23.09-.54.06-.72.16l-.04-.23.12-.15.57.22h.07Zm-.49.34-.26.01-.01-.08c.18-.07.48-.08.76-.1-.1.04-.2.1-.29.15l-.2.02Zm.68 0c-.22.06-.43.25-.57.4-.03-.18.3-.48.47-.58.07.06.08.06.1.18Zm.38-2.29v.03l-.23.14-.34.02v-.03l.57-.16Zm-.31.58-.07-.11c.17-.15.55-.07.76-.05l-.69.16Zm1.7-.57c.32.03.6.1.83.24h.05l-.03.04-.3.1-.55-.08-1.2-.18v-.02c.39-.09.81-.13 1.2-.1Zm1.26-.1-.07.09a.92.92 0 0 1-.5-.2l.57.08v.03Zm1.01.7.16-.05.16.14c-.02.16-.18.29-.3.45h-.08c-.25-.4-.56-.85-1.11-1.01l-.03-.05.22-.09c.38.13.69.33 1.03.44.05.1.03.07-.05.18Zm.46.92-.04-.04h-.1l.16-.15-.02.19Zm.17 2.12c.25.22.32.54.21.96l-.33-.75.1-.16.02-.05Zm.07-1.73v.04l-.14.15-.05-.1c.08-.15.02-.07.13-.08h.06Zm.16 0 .6.22v.06l-.16.1-.6-.22v-.06l.16-.1Zm1.17.77-.33-.22-.05-.1c.14-.08.12-.08.28-.05l.1.37Zm.19-.08-.07.08c-.08-.04-.1-.1-.12-.2l.17.08.02.04Zm-.14-.55h-.05l.16-.14-.11.14Zm.9.97-.1.04-.5-.28-.16-.22c.26-.2.27.03.52.15l.24.31Zm.19.17-.2-.07.12-.06.08.13Zm-.23.3c.07.15.06.1.23.09l-.3.25a381.54 381.54 0 0 0-.27-.56c.2-.05.27.03.47.06l.08.12-.21.05Zm.04.35.38-.2c-.08.17-.18.25-.3.38l-.08-.18Zm.76.73c-.1.1-.17.12-.37.14l.16.02v.02l-.54.23-.01-.69.37-.43.06-.03.33.74Zm-.2-1.04c1.05-.3.85.26.38.68l-.37-.68Zm.96.1c-.39 1.82-.46 1.91-1.83 2.7l-.07-.12.05-.2c.89-.25 1.4-.72 1.34-1.77l.45-.57.06-.03Zm.04 0-.04-.18h.14l-.1.19Zm-2.32 1.77.01-.2.01-.18.14-.04h.01c.04.23 0 .4-.07.57-.06-.04-.08-.05-.1-.15Zm-.76 1.68v-.04a693.67 693.67 0 0 0 .3-.72l.44.03.02.1c.02.22-.06.4-.14.64l-.62-.01Zm.19.77v-.3l.01-.08.32.03h.05l-.22.36-.16-.01Zm-.19-1.25h.02l.15-.08h.02l-.02.07-.1.3-.07-.26v-.03Zm-.3.96-.08-.09c.08.06.03 0 .09.09Zm-.46-.23c.1-.07.22-.05.38-.04l-.05.15c-.13.05-.14.03-.3.02l-.03-.13Zm.23.72.15.35-.34.23c-.1-.14 0-.53.2-.58Zm-.37-1.2h-.05l.06-.14-.01.14Zm.55.05-.03-.02.08-.17h.03l.08.18h-.16Zm1.3-2.5v-.06c.05-.06.08-.1.17-.13l.02.12-.11.07h-.07Zm0 .47c-.04.05-.1.07-.14.1l-.05-.95.19.85Zm-.35 1.29c.13-.07.14 0 .16.16h-.38v-.06l.22-.1Zm-.19-.53.09-.08.07.13-.03.07-.16-.02.03-.1Zm-.03.5-.2.2-.13-.03h-.05l.1-.17h.28Zm-.72-.1c-.08-.06-.02-.05-.03-.1 0 .04.02.07.03.1Zm.6-.86-.64-.33c.03-.44.08-.94.04-1.4.5.18.94.98.6 1.73Zm-.45 0c.16.08.15.16.37.23.04.14-.02.2-.11.35l-.24-.01c-.04-.26 0-.4-.02-.57Zm.04 1.24c-.08-.05-.02-.05-.03-.09l.03.1Zm1.29-1.85v-.03l.17-.13c.03.2.02.53-.02.77-.1-.08-.12-.41-.15-.6Zm0 .61.11-.2-.06.2h-.05Zm1.1-.57h.04c0 .73-.45.86-1.05 1.14h-.1l.38-.76.73-.38Zm-1.12-1.44.02.06-.05.03-.14-.19.17.1Zm-.17.32v-.03h.05l.14.19c-.11-.06-.13-.07-.2-.16Zm.19.5-.26.23-.55-.8-.71-.61.16-.12c.34.15.95.43 1.07.78.04.12-.1.21 0 .3.1.12.21.04.29.21Zm-1.6 1.2.05.01.03.56-.09-.02c-.08-.07-.14-.35-.06-.47l.07-.09Zm-.42.95h.06l.06.15-.1.04h-.09l.07-.19Zm-.18 3.07-.08-.28.35-.1h.03v.02l-.3.36Zm-.27-.77c.04-.1.06-.13.12-.19l.06.02.01.05-.12.12h-.07Zm.1.2-.1-.1.2-.1-.06.2h-.05Zm-.2.87-.09-.07h.06l.3-.23.02.23-.22.15-.08-.08Zm0 2.2c-.45.01-.72-.1-1.1-.14l-.42-.84-.09-.08c.72-.09 1.17-.43 1.7-.67.2.18.62 1.09.24 1.49-.09.14-.19.15-.32.23Zm-1.96-.95.18-.01c.25.17.43.48.55.76l-.76-.22a.89.89 0 0 0 .03-.53Zm-.54-.73.85-.24 1.35.13.02.07c-.4.18-.85.33-1.31.56-.5.04-.62-.15-.96-.27l.05-.25Zm-.05.9.01-.16.33-.02c.03.14.06.22.01.38l-.35-.2Zm-.38.3.12-.06c.16-.1.28.03.45.09l-.07.06-.5-.08Zm.36-.3-.12-.05-.05-.13h.19l-.02.19Zm-.55 0 .19.17c0 .1-.01.09-.04.22l-.15-.38Zm-.5-.71c.18-.06.42-.04.69-.05l-.25.2-.51-.06.07-.1Zm-.45-9.62c.35-.33 1.23-.23 1.46-.02h.06c-.3.27-.76.3-1.04.57-.22-.14-.4-.24-.48-.55Zm1.94.55.14.17-.4.03c-.32.02-.63.07-.85.18h-.03l-.04-.07a2.72 2.72 0 0 1 1.15-.3h.03Zm.73-.96c.25.25.62.4.74.77-.51-.24-1.3-.24-1.7-.62.35.08.65.05.96-.15Zm.17 1.35.7.1.06-.01-.56.48c-.09-.18-.11-.42-.2-.57Zm.9.82-.14-.03c.07 0 .13-.02.2-.03l-.05.06Zm-.14-.46.18-.17.01.19-.12-.03h-.07Zm.35 6.35h-.09l-.07-.07.06-.07.13-.05-.03.19Zm-.15.35.07-.08v-.08l.11.18-.19.02v-.04Zm-.08.61-.12-.14.38-.05-.18.19h-.08Zm.07.58-.38-.05.27-.15.11.2Zm-.26-.54.07.07-.27.07-.3.01.41-.19.09.04Zm-1.07-8.3c.23.02.46.07.57.2-.15-.01-.42.01-.5-.1l-.07-.1Zm.2.78c.1.1.14.2.12.38-.16-.06-.12-.24-.12-.38Zm.18 1.2v-.03c.39-.08.47.05.3.17-.15-.02-.22-.08-.3-.13Zm.49 4.94.08.02v.02l-.19.15.08-.19h.03Zm-.1-4.68.14-.12.04.2-.19-.05v-.03Zm.56 5.13-.46.12h-.1v-.02a.81.81 0 0 0 .38-.17l.16.03.02.04Zm-.32-.45-.06-.1.13-.1.06.04-.07.15h-.06Zm-1.2 1.32.23-.17.7.06.02.05c-.15.1-.31.18-.47.27a.7.7 0 0 1-.42-.21h-.06Zm-.35.02.35.2-.56-.1.21-.1Zm-.03.4v.04l-.1.06h-.08v-.04c.08-.1.07-.07.18-.07Zm-.89-7.82a5.2 5.2 0 0 0-.05-.05c.18-.1.48-.16.77-.18.25-.02.48-.02.65-.02l.1.57c-.25-.03-.5-.06-.75-.07-.2-.01-.42 0-.66.02l-.06-.27Zm.28 7.7.05.08-.05.18-.52.04c.05-.17.14-.26.23-.39l.29.1Zm-.65-.66c-.24-.02-.56-.19-.63-.39l.76.2-.13.19Zm.27-.01h-.14v-.04l.16-.14-.02.18Zm-.52-7.02.23-.07.15.18h-.16l-.22-.11Zm0 8.24-.04.12-.06.01-.1-.2.2.03v.04Zm.1-.83.44.09.03.06-.35.43-.41-.06.29-.52Zm3.31-6.01.09-.13h.03l.24.06.02.03-.26.1-.12-.06Zm.52-.62-.14-.09c.14.05.06 0 .14.09Zm-.05.87-.09-.07.2-.12-.1.2Zm-.09 1.35.3.07c.08.03.07.04.08.12-.13-.05-.34-.08-.38-.2Zm.03-.53.04-.05.12.2-.19-.04.03-.1Zm-3.84 6.32.02.05-.26.1h-.12v-.02l.09-.14c.12-.05.12-.02.27 0Zm-.55-9.63c.16.12.2.27.18.77-.1-.14-.17-.44-.18-.77Zm.1-.38v.13l-.1.01.1-.14Zm-.1.19-.02.14-.17-.04.14-.1h.05Zm0 11.13.1-.98.66-.17-.7 1.11-.06.04Zm.04-2.63.1-.06c.1.11.02.27-.07.38-.07-.06-.08-.1-.06-.26l.03-.06Zm-.61-.1.22-.34.35.2-.36.56a.7.7 0 0 1-.21-.41Zm0 1.51.35-.32.16.02.06.09-.04.28-.53-.07Zm-.57-.26.42-.25.31.05.03.04-.34.3a.62.62 0 0 1-.36-.14h-.06Zm-.06-.37.16-.07.06.01.03.03-.44.15-.13-.04.32-.08Zm-.51-.18.11-.27c.2-.03.26.07.41.14l.05.07-.23.16h-.2l-.14-.1Zm-.38.79.28-.49c.18 0 .2.02.28.11.03.06 0 .03-.07.04l-.02.17.29.04c-.06.14-.07.12-.15.21-.28.02-.41-.04-.61-.08Zm-.32-.68.48.14.03.06-.31.37-.45-.14.25-.43Zm-1.86-.52v-.06l.28.21.02.05c-.56.44.3 1.84 1.27.93l.42.17c-.16.29-.44.4-.73.56-.7.06-1.67-1.08-1.26-1.86Zm.65.2.01.13-.15-.12-.04-.08.18.07Zm.96.81c-.11.1-.23.18-.35.27-.68.07-.95-.4-.98-.98l.14-.16h.05c.35.26.65.68 1.12.81l.02.06Zm-.66-2.8c-.06-.04-.07-.06-.1-.14l.13-.49.15-.13.1.14c-.1.2-.19.42-.28.63Zm-.1.17.3-.7.06-.04c.14.24.34.35.4.68l-.45.47a.9.9 0 0 1-.3-.4Zm.57.59.38-.37.2.38-.58-.01Zm.95-3.88c-.18.38-.42.64-.56 1.01-.06-.33.31-.82.43-1.11l.06-.04.07.14Zm0-1.05c.28-.1.47-.25.67-.43l.09.26-.24.32-.52-.15Zm.95.02-.1.13-.1-.02.01-.02.17-.16.02.07Zm-.15-.83h.03l.12.25-.05.13c-.17-.09-.16-.2-.1-.38Zm-.04 5.56.18.13-.18-.08v-.05Zm0 .2.19.07v.03l-.4.28c-.12-.05-.14-.16-.17-.27v-.02l.38-.1Zm-.56-.39.18.07-.1.06h-.09v-.13Zm-.01-3.84c.23.07.16.02.17.2a.41.41 0 0 1-.17-.2Zm0 3.43.02-.17c.08.07.11.1.17.2l-.19-.03Zm.38-2.4c-.07.1-.07.07-.19.12l.08-.19.1.07Zm0-.77-.12.13c-.12-.07-.06-.05 0-.17l.06-.03.06.07Zm-.02-.33-.17-.12c.13.05.1.02.17.12Zm-.36 3.53.19.15c-.1 0-.15-.03-.19-.15Zm.57-.01h-.08l-.06-.12a5.58 5.58 0 0 1-.05-.06h.1l.09.18Zm-.1-3.55-.1-.09c.1.06.04 0 .1.09Zm0 3.16-.1-.2.05-.17h.02l.13.38-.1-.01Zm-.5 2.23c.02 0 .02.02.03.02l-.07.26a.52.52 0 0 1-.31-.39l.36.1Zm-.54.28.19.16c-.12-.05-.13-.05-.19-.16Zm.33-1.7.02.16-.16-.19c.05 0 .1.02.14.03Zm-.19.9-.14-.35c.17.06.3.25.38.38l-.24-.04Zm.15-3.42h.05l-.14.19c-.02-.05 0-.1.08-.15l.01-.04Zm-.1 1.65-.04.07-.1-.08-.05-.1.15-.01.04.12Zm-1.33 1.6c.38.25 1.03.48 1.14.97a3.24 3.24 0 0 1-1.14-.96Zm.99-.18.15.19-.38-.2.23.01Zm1.39.57-.3-.29.51-.48.07.53-.28.24Zm.28.32.05-.12h.07l.07.18-.2-.06Zm.25-.7-.06-.2.14.03-.08.17Zm-.25-6.46v-.02l.19-.05-.13.2-.06-.13Zm-1.91 3.96-.18-.38c.22.05.19.2.18.38Zm-.47.2a.77.77 0 0 1-.28-.58c.34.08.32.2.38.51l-.1.06Zm-.2-1c-.24-.23.12-1.15.27-1.36.08-.1.19-.1.32-.14l.1.02c-.24.4-.4.95-.45 1.51-.08 0-.16-.02-.24-.04Zm-.35 3.1.12.2-.1.24-.07.06c.09.02.1-.06.23-.16.25.4.63.78 1.04 1l-.23.4-.68-.45c-.08-.14.03-.3-.1-.4-.11-.08-.26.04-.37 0l-.33-.3c.1-.2.19-.41.38-.52l.11-.06Zm-.66-2.11a4.92 4.92 0 0 1 .14-.57l.1.57.05.3.45 1.24c-.36-.2-.58-.65-.55-1.26-.09.2-.01.5.02.68-.23-.19-.26-.56-.2-.96Zm-.32.2a.7.7 0 0 1-.07-.23v-.33l.04-.07.14-.14-.08.54-.03.23Zm13.2 1.92-.37-.15.37-.05v.2Zm-10.04 3.12.1-.05-.11.19.01-.14Zm-2.86-6.58-.16-.01a.65.65 0 0 1-.4-.56c.3.02.4.17.56.35v.22Zm-.02-.01c.02-.42-.3-.68-.7-.67.07-.58.57-.88 1.02-1.07h.1c-.08.72-.03 1.35-.3 1.98-.2.47-.92.46-.88 1.18v.06c.1.95 1.15 1.15 1.3 1.99-1.55.78.33 4.07 1.55 2.14.22.03.41.13.69.03.12-.07.15-.12.2-.27l.43.22.02.06c-.4.3-.68.73-1.1 1.02 0-.04.02-.07.03-.11l-.1-.02c-.03 0-.05.02-.07.03l-.05.26c.24.25.98-.65 1.2-.83-.12.43-.43.65-.6 1.04l.06.06c.32-.23.71-.88.77-1.37l.48.07c-.6.82-2.15 2.6-2.96 3.08.12-.39.32-.69.42-1h-.06a6.13 6.13 0 0 0-.05-.05c-.2.39-.52.66-.58 1.18.04.07.08.1.13.13.97-.16 2.58-2.58 3.35-3.24-.21 2.09-1.33 2.42-2.3 3.68.88-.44 1.42-1.56 2.17-2.19-.08.88-.29 2.83-.81 3.18l.08-.01c.6-.37.63-1.86.82-2.63l.08-.8.84-1.18.06-.03c.1.29.52.6.98.52l.33-.13.83.3c.11 1.2.07 1.86-.69 2.77.78-.4 1.06-1.91.8-2.72 1.8.21 1.72-.4 1.38-1.7h.32c-.06-.08-.22-.01-.34-.08-.05-.04-.04-.03-.07-.08.42-.48 1.45 0 1.23.8.3-.67-.35-1.25-.98-1.02.27-.32.6-.58.76-1l.06-.03 1.48 1.55.09-.01.06-.09-1.4-1.67a27.06 27.06 0 0 1 .4-.15l-.07-.04c.76.07 1.72.7 2.5.5.08-.13.08-.2.04-.32.84.02 2.34-.26 2.82-.66-1.29.27-2.74.36-3.92.2l-1.05-.12h-.06l.28-.5c.87-.02 3.13-.04 3.6-.58l-.1-.14-.4-.05c-.04.05-.04.1-.05.14l.31.04c-.68.17-2.57.53-3.19.32-.06-.08-.01-.36-.01-.55v-.1a2.58 2.58 0 0 0 1.81-1.77c.16-.51.06-1.2.39-1.51.21.02.26.1.41.17a.68.68 0 0 0-.35-.23l-.27.19c-.26.1-.53-.16-.96.04-.35-.3-.54-.77-1.02-.95l-.05-.08.58-.56a9.2 9.2 0 0 0-.57.53l-.39-.17-.02-.06c.44-.31.83-.42 1.33-.33l.07.14a.17.17 0 0 1-.07.06l-.16-.04c.07.04.14.05.22.07l.06-.06.01-.09c-.1-.1-.14-.17-.35-.17l.1-.15c-.25.16-.74.2-.99.35l.57-.44.06-.09-1.04.62a.96.96 0 0 1-.58-.24h-.05l1.23-.83-.02-.08-1.4.81-.45-.1.04-.41 3.22-2.52h.06l-.05-.12c-.12-.05-.61.34-.8.46-.7.46-1.34 1.03-2.04 1.44.3-.37.82-.73.9-1.27l-.13-.02-.22.2.24-.11a4.35 4.35 0 0 1-1.26 1.57l-.04-.1c.25-.44.5-1.02.39-1.58l-.22-.12-.23.01c.15.06.25.08.36.15.07.54-.2.9-.34 1.34a4 4 0 0 0-.06.03c-.1-.18-.1-.26-.29-.3l-.01-.1.13-.19.1-.06c.02.06.03.04.04.14.03-.05.03-.1.04-.15l-.11-.05-.29.31c-.24-.16-.5-.33-.85-.4.2-.4.78-1.04.48-1.54-.37-.62-1.63.1-2.1.58a.91.91 0 0 0-.14.18l.14-.1c.46-.34 1.67-1.16 1.94-.5.27.36-.26 1.05-.4 1.34-.5-.05-1-.1-1.54-.1-.53.02-1.08.09-1.64.27-.27.1-1.4.77-1.45.77l-.53-.5-1.09-.55v.05l-.07.06 1.4 1.19-.21.13c-.58-.44-.97-.7-1.83-.93l-.14.01c.5.35 1 .66 1.5.98l.1.13c-.36.16-.5.47-.81.66a9.95 9.95 0 0 0-1.49-.6l-.04.12 1.08.69h.05l-.18.12c-.09.29-.25.62-.4 1.03-.53.44-1.23.4-1.33 1.3-.18.04-.3.06-.45.17l-.01.12c.1.14.96.5 1.17.54l.13-.12Zm6.37-6.14.08.01-.11-.01h-.05c.08-.16.33-.2.56-.18l-.01.11-.47.03v.04Zm.33.2.22-.07c.1-.16.15-.33.1-.49-.22-.04-.36.01-.57.1l-.12.2-.04.07.04.04c.07.06.16.08.32.07.05.08 0 .04-.08.06l.13.02Zm5.52 1.73-.24.04h.15l.16.07-.25.47c.13-.16.26-.27.32-.5l-.14-.08Zm-1.38 7.48c-.06-.1-.13-.17-.2-.19l.2.2Zm-.76 2.3-.19.12.15-.02.04-.1Zm.76-2.3c.2.22.34.64.3.96.21-.47-.04-.76-.3-.96Z"
fill="#fff"></path></g><defs><clipPath id="habr_0"><rect width="24" height="24" rx="5" fill="#fff"></rect></clipPath></defs></svg><svg viewBox="0 0 28 18" fill="none" id="logo-color"><path d="M0 0v18h28v-18h-28Zm4.11 17.7v-17.46h22.59v17.46h-22.59Z" fill="#000"></path><path d="M4.11 17.7v-17.46h22.59v17.46h-22.59Z" fill="#69B42E"></path><path d="M.57 16c0-1.22.86-1.51 1.53-1.51.6 0 1.5.25 1.5 1.52v1.65h-3.03v-1.65Zm2.28.5v-.23c0-.26-.08-.57-.77-.57-.7 0-.8.3-.8.57v.24h1.57Zm-1.52-3.38h.52v-.02c-.29-.08-.57-.32-.57-.68 0-.05 0-.12.02-.18h.91a.91.91 0 0 0-.03.23c0 .32.2.58.6.58h.83v1.09h-2.28v-1.02Zm1.44-.78v-.94h.84v.94h-.84Zm-.26-2.38v-.02l-1.93-.48v-1.11l1.93-.47v-.02l-1.93-.36v-1.03l3.03.72v1.24l-1.98.5v.02l1.98.48v1.27l-3.03.7v-1.08l1.93-.36Zm-1.94-6.28h.71v1.48h.44v-1.42h.7v1.42h.47v-1.51h.72v2.67h-3.04v-2.64Zm0-2.2c0-.95.5-1.12.79-1.12.35 0 .63.24.7.61h.01c.05-.3.25-.68.73-.68.76 0 .8.86.8 1.25v1.75h-3.03v-1.81Zm1.2.72v-.27c0-.4-.2-.44-.3-.44-.12 0-.29.1-.29.41v.3h.6Zm1.22 0v-.3c0-.37-.2-.43-.31-.43-.3 0-.3.36-.3.46v.27h.61Z" fill="#fff"></path><path d="m10.63 8.09 4.78-2.63 4.76 2.63s.64 2.26-1.89 4.16c-2.51 1.9-3.22 1.88-5.77 0-2.54-1.88-1.88-4.16-1.88-4.16Z" fill="#000"></path><path d="m15.38 4.46 3.3 1.78c.08-.22.12-.44.12-.68 0-1.4-1.52-2.52-3.4-2.52s-3.4 1.13-3.4 2.52c0 .23.04.45.12.66l3.26-1.76Zm5.75 5.14 2.63 1.53-4.94 5.79 2.3-7.32Zm.13-1.47-.3-1.27 5.08 1.44-3.15 1.63.44-1.32-2.07-.48Zm-.59-2.09-.67-.9 4.5-1.4-1.12 3.43-.46-1.57-2.25.44Zm-1.24-1.6-.94-.96 1.24-1.23-1.36-.81h3.6l-2.54 3Zm-9.76 5.16-2.63 1.53 4.93 5.79-2.3-7.32Zm-.13-1.47.3-1.27-5.08 1.44 3.14 1.63-.43-1.32 2.07-.48Zm.59-2.09.67-.9-4.5-1.4 1.12 3.43.46-1.57 2.25.44Zm1.23-1.6.95-.96-1.24-1.23 1.36-.81h-3.6l2.53 3Z" fill="#000"></path><path d="M14 11.4h2.8l.22-.64h-3.24l.22.64Zm.74 2.16c.46.13.88.14 1.33 0l.15-.44h-1.63l.15.44Zm-.34-.99h2l.22-.63h-2.43l.21.63Zm-.8-2.35h3.6l.22-.63h-4.04l.22.63Zm3.54-3.8-.4 1.67h-.01l-.63-1.69h-1.35l-.6 1.7h-.01l-.46-1.69-1.16.64.68 2h1.6l.6-1.73h.02l.6 1.73h1.59l.68-2-1.15-.63Z" fill="#fff"></path></svg><svg viewBox="0 0 143 25" fill="none" id="logo"><path d="M57.51 11.5c0-3.85-1.82-8.82-9.29-8.82h-10.13v17.49h10.13c7.73 0 9.3-5.2 9.3-8.67Zm-12.35 4.3v-8.98h1.43c1.71 0 3.48.56 3.48 4.6 0 3.92-1.9 4.4-3.48 4.4l-1.43-.02Zm20.47-.38c0-2.24 1.59-3.47 3.56-3.47.46.01.92.08 1.37.2v-5.25a5.05 5.05 0 0 0-1.08-.12c-2.22 0-3.64 1.62-4.15 3.27h-.11v-2.97h-6.22v13.09h6.63v-4.75Zm10.67-.06h-5.71v4.84h5.75l-.04-4.84Zm11.15 4.8 2.9-11.38h.18l3.06 11.39h7.6l4.44-17.44h-6.34l-2.24 11.14h-.1l-2.86-11.14h-6.78l-2.93 11.14h-.11l-2.22-11.14h-6.63l4.3 17.44h7.73Zm35.52-4.12h-9.2v-2.72h8.66v-4h-8.66v-2.52h9.06v-4.12h-16.14v17.49h16.32l-.04-4.13Zm19.99-.56c0-2.75-2.33-3.9-4.15-4.15v-.1a4.37 4.37 0 0 0 2.68-1.35 3.94 3.94 0 0 0 1.07-2.67c0-1.63-1.05-4.56-6.84-4.56h-11.1v17.52h10.75c2.35 0 7.63-.25 7.63-4.67l-.04-.02Zm-11.63-9.26h1.82c1.95 0 2.51.96 2.51 1.69 0 .5-.24 1.68-2.67 1.68h-1.66v-3.37Zm0 10.4v-3.57h1.64c.6 0 2.8 0 2.8 1.77 0 .63-.38 1.8-2.65 1.8h-1.79Zm-119.12-8.92 5.4-2.85 5.43 2.88c.13-.35.2-.72.2-1.1 0-2.24-2.51-4.08-5.6-4.08-3.1 0-5.62 1.83-5.62 4.09 0 .36.06.72.19 1.06Zm15.06 3.08 3.41.78-.72 2.14 5.2-2.63-8.38-2.34.5 2.05Zm-4.02 14.22 8.14-9.35-4.34-2.48-3.8 11.83Zm-.55-21.72 1.55 1.55 4.19-4.83h-5.93l2.21 1.3-2.02 1.98Zm3.6 4.12 3.7-.7.77 2.54 1.84-5.53-7.42 2.24 1.1 1.45Zm-22.54 8.25 8.15 9.35-3.79-11.83-4.36 2.48Zm.72-4.09 3.4-.78.5-2.05-8.38 2.34 5.2 2.63-.72-2.14Zm.68-4.87 3.7.71 1.11-1.45-7.42-2.24 1.84 5.53.77-2.55Zm7.3-3.41-2.04-1.99 2.26-1.29h-5.93l4.19 4.86 1.53-1.58Zm2.23 4.75.74 2.63h.04l1-2.8h2.32l1.07 2.8h.03l.6-2.59-2.88-1.6-2.92 1.56Zm10.75 2.7-3.03-1.64-1.09 3.13h-2.7l-1.01-2.88h-.04l-1.02 2.88h-2.72l-1.1-3.13-3.02 1.63s-1.1 3.7 3.1 6.73c1.07.86 2.27 1.56 3.56 2.08l-.18-.53h2.78l-.19.56c1.3-.5 2.5-1.21 3.56-2.08 4.16-3.1 3.12-6.76 3.12-6.76h-.02Zm-6.17 7.37h-3.4l-.37-1.06h4.15l-.38 1.06Zm.71-1.96h-4.77l-.37-1.06h5.5l-.36 1.06Zm.68-1.96h-6.15l-.36-1.05h6.87l-.36 1.05Z" fill="#fff"></path></svg><svg viewBox="0 0 24 24" fill="none" id="ok"><path d="M24 20.49a3.5 3.5 0 0 1-3.5 3.51h-17a3.5 3.5 0 0 1-3.5-3.51v-16.98a3.5 3.5 0 0 1 3.5-3.51h17a3.5 3.5 0 0 1 3.5 3.51v16.98Z" fill="#FAAB62"></path><path d="M23.88 20.4a3.47 3.47 0 0 1-3.46 3.48h-16.84a3.47 3.47 0 0 1-3.46-3.48v-16.8a3.47 3.47 0 0 1 3.46-3.48h16.84a3.47 3.47 0 0 1 3.46 3.48v16.8Z" fill="#F7931E"></path><path d="M11.99 3.59a4.32 4.32 0 0 0-4.31 4.33 4.31 4.31 0 0 0 4.3 4.32 4.32 4.32 0 0 0 0-8.66Zm0 6.12c-.99 0-1.78-.8-1.78-1.8a1.78 1.78 0 1 1 3.56.01c0 .98-.8 1.79-1.78 1.79Zm1.51 5.98a6.99 6.99 0 0 0 2.82-1.22c.5-.4.58-1.15.18-1.65-.4-.51-1.14-.6-1.65-.19 0 .01-1.1.86-2.92.86a5.2 5.2 0 0 1-2.95-.86 1.18 1.18 0 0 0-1.47 1.84 7.1 7.1 0 0 0 2.9 1.23l-2.46 2.6a1.18 1.18 0 0 0 .84 2c.3 0 .61-.13.84-.37l2.3-2.46 2.52 2.48c.46.46 1.2.46 1.66 0 .46-.46.46-1.2 0-1.67l-2.6-2.6Z" fill="#fff"></path></svg><svg viewBox="0 0 24 24" fill="none" id="rutube"><path d="M0 6a6 6 0 0 1 6-6h12a6 6 0 0 1 6 6v12a6 6 0 0 1-6 6h-12a6 6 0 0 1-6-6v-12Z" fill="#172037"></path><path d="m15.41 13.62.26-.05c.85-.2 1.41-.7 1.58-1.58.16-.89.16-1.8.03-2.7a2 2 0 0 0-1.48-1.73 3.96 3.96 0 0 0-1.18-.14h-8.11c-.15 0-.2.03-.2.19v8.83c0 .15.04.19.18.18h1.92c.16 0 .2-.03.2-.2v-2.55c0-.21.06-.25.26-.25h3.95c.16 0 .25.05.34.19l1.78 2.65c.07.12.15.17.3.16h2.17c.06 0 .12.02.19-.04l-2.19-2.96Zm-.39-2.47c-.03.24-.16.38-.4.42l-.42.03h-5.37c-.17 0-.23-.02-.22-.2v-1.73c0-.2.06-.23.23-.23h2.76l2.54.01c.14 0 .29 0 .42.03.33.06.45.18.47.51.03.39.05.78 0 1.16Z" fill="#fff"></path><path d="M18.04 5.18c.65 0 1.17.53 1.17 1.17a1.2 1.2 0 0 1-1.18 1.18 1.2 1.2 0 0 1-1.18-1.2c0-.64.54-1.15 1.19-1.15Z" fill="#E62244"></path></svg><svg viewBox="0 0 24 24" fill="none" id="tg"><path d="M12 24a12 12 0 1 0 0-24 12 12 0 0 0 0 24Z" fill="#2AABEE"></path><path fill-rule="evenodd" clip-rule="evenodd" d="M5.43 11.87a570.9 570.9 0 0 1 7-3.01c3.33-1.39 4.03-1.63 4.48-1.64.1 0 .32.03.46.14.12.1.16.23.17.33.02.1.04.3.02.47-.18 1.9-.96 6.5-1.36 8.63-.17.9-.5 1.2-.82 1.23-.7.06-1.22-.46-1.9-.9-1.05-.7-1.65-1.13-2.68-1.8-1.18-.78-.41-1.21.26-1.91.18-.19 3.25-2.98 3.3-3.23.02-.04.02-.15-.05-.22-.07-.06-.17-.04-.25-.02-.1.02-1.79 1.14-5.06 3.35a2.4 2.4 0 0 1-1.3.48 8.54 8.54 0 0 1-1.86-.45c-.76-.24-1.35-.37-1.3-.78.03-.22.32-.44.9-.67Z" fill="#fff"></path><defs><linearGradient id="tg_0" x1="12" y1="0" x2="12" y2="23.822" gradientUnits="userSpaceOnUse"><stop stop-color="#2AABEE"></stop><stop offset="1" stop-color="#229ED9"></stop></linearGradient></defs></svg><svg viewBox="0 0 10 7" fill="none" id="tick"><path fill-rule="evenodd" clip-rule="evenodd" d="M9.71.19c.35.28.39.77.09 1.1l-5.06 5.44a.87.87 0 0 1-1.21.05l-3.28-2.97a.74.74 0 0 1-.01-1.1.88.88 0 0 1 1.17-.02l2.65 2.4 4.48-4.82a.88.88 0 0 1 1.17-.08Z" fill="#EDF6E6"></path></svg><svg viewBox="0 0 24 24" fill="none" id="vk"><path d="M0 5a5 5 0 0 1 5-5h14a5 5 0 0 1 5 5v14a5 5 0 0 1-5 5h-14a5 5 0 0 1-5-5v-14Z" fill="#07F"></path><path d="M12.59 16.2c-4.51 0-7.08-3.15-7.19-8.4h2.26c.07 3.85 1.74 5.48 3.06 5.82v-5.82h2.13v3.32c1.3-.14 2.67-1.66 3.13-3.32h2.13a6.47 6.47 0 0 1-2.9 4.19 6.54 6.54 0 0 1 3.39 4.21h-2.34a4.16 4.16 0 0 0-1.26-2.03 4.04 4.04 0 0 0-2.15-.97v3h-.26Z" fill="#fff"></path></svg><svg viewBox="0 0 24 24" fill="none" id="youtube"><g clip-path="url(#youtube_0)"><path d="M23.52 6.19a3.02 3.02 0 0 0-2.12-2.14c-1.88-.5-9.38-.5-9.38-.5s-7.5 0-9.37.5a3.02 3.02 0 0 0-2.12 2.14c-.5 1.88-.5 5.81-.5 5.81s0 3.93.5 5.82a3.02 3.02 0 0 0 2.12 2.13c1.87.5 9.37.5 9.37.5s7.5 0 9.38-.5a3.01 3.01 0 0 0 2.12-2.13c.5-1.89.5-5.82.5-5.82s0-3.93-.5-5.81Z" fill="#FF0302"></path><path d="M9.57 15.57v-7.14l6.27 3.57-6.27 3.57Z" fill="#FEFEFE"></path></g><defs><clipPath id="youtube_0"><path fill="#fff" d="M0 0h24v24h-24z"></path></clipPath></defs></svg><svg viewBox="0 0 24 24" fill="none" id="zen"><path d="M14.31 14.31c-1.88 1.95-2.02 4.38-2.18 9.69 4.95 0 8.37-.02 10.14-1.73 1.71-1.77 1.73-5.35 1.73-10.14-5.31.17-7.74.3-9.69 2.18Zm-14.31-2.18c0 4.79.02 8.37 1.73 10.14 1.77 1.71 5.19 1.73 10.14 1.73-.17-5.31-.3-7.74-2.18-9.69-1.95-1.88-4.38-2.02-9.69-2.18Zm11.87-12.13c-4.94 0-8.37.02-10.14 1.73-1.71 1.77-1.73 5.35-1.73 10.14 5.31-.17 7.74-.3 9.69-2.18 1.88-1.95 2.02-4.38 2.18-9.69Zm2.44 9.69c-1.88-1.95-2.02-4.38-2.18-9.69 4.95 0 8.37.02 10.14 1.73 1.71 1.77 1.73 5.35 1.73 10.14-5.31-.17-7.74-.3-9.69-2.18Z" fill="#2C3036"></path><path d="M24 12.13v-.26c-5.31-.17-7.74-.3-9.69-2.18-1.88-1.95-2.02-4.38-2.18-9.69h-.26c-.17 5.31-.3 7.74-2.18 9.69-1.95 1.88-4.38 2.02-9.69 2.18v.26c5.31.17 7.74.3 9.69 2.18 1.88 1.95 2.02 4.38 2.18 9.69h.26c.17-5.31.3-7.74 2.18-9.69 1.95-1.88 4.38-2.02 9.69-2.18Z" fill="#fff"></path></svg></svg>