<svg viewBox="0 0 27 27" fill="none" xmlns="http://www.w3.org/2000/svg"><path fill-rule="evenodd" clip-rule="evenodd" d="M1.33 16c.74 0 1.34.6 1.34 1.33v5.34c0 .36.14.69.38.94.26.24.59.39.95.39h18.67c.36 0 .69-.15.94-.39.26-.24.39-.58.39-.94v-5.34a1.34 1.34 0 0 1 2.67 0v5.34a4 4 0 0 1-4 4h-18.67a4 4 0 0 1-4-4v-5.34c0-.73.6-1.33 1.33-1.33Z" fill="currentColor"/><path fill-rule="evenodd" clip-rule="evenodd" d="m20.95 11.61-6.67 6.67c-.12.12-.27.21-.43.28a.4.4 0 0 1-.18.05.92.92 0 0 1-.34.06.92.92 0 0 1-.33-.06.45.45 0 0 1-.19-.05c-.16-.07-.3-.16-.42-.28l-6.67-6.67a1.34 1.34 0 0 1 0-1.89 1.34 1.34 0 0 1 1.9 0l4.38 4.4v-12.79a1.34 1.34 0 0 1 2.67 0v12.79l4.38-4.4a1.34 1.34 0 0 1 1.9 0c.52.52.52 1.37 0 1.9Z" fill="currentColor"/></svg>