<svg viewBox="0 0 24 24" fill="none" xmlns="http://www.w3.org/2000/svg">
<g clip-path="url(#a)"><path d="M0 0h24v24h-24v-24Z" fill="#629FBC"/>
<path d="m5.06 10.68.12.19c-.25 0-.51-.03-.56-.14v-.02c.14-.03.26-.04.44-.03Zm1.34.57.07.19h-.15l.04-.18h.04Zm.5 1.36c-.13.12-.23.2-.3.37-.11-.09-.17-.25-.2-.44-.04-.21-.05-.44-.08-.61l.01-.1h.15l.37.7.04.08Zm-.2-1.74a46.35 46.35 0 0 1 .06-.38h.05l-.1.38Zm-.1-1.73.67.18v.03c-.31.23-.6.34-.76.75l.06-.93.03-.03Zm.63-.96c-.05.43.01.62.09.9.12.08.17.13.13.25-.2-.1-.42-.2-.72-.18l-.03-.03c.09-.34.26-.55.39-.82l.14-.12Zm.96-.57h.03c-.1.32-.13 1.05-.3 1.34-.37-.18-.37-.96.06-1.27l.21-.07Zm-.36 2.36.33.34c-.13.4-.37.69-.47 1.13h-.2c-.15-.46.25-1.2.32-1.53l.3.03.11.28-.39-.25Zm.89-2.36c-.04.37.05.57.07.86l-.57.29c.05-.48.15-.8.28-1.14l.22-.01Zm.22-.58h.04l-.06.19h-.13l.1-.11.05-.08Zm.04 1.76-.57.35c.01-.21.28-.5.5-.57l.06.02v.2Zm.38-1.32-.1.58-.11.07a8.4 8.4 0 0 1-.06.06c-.1-.14-.13-.5-.1-.76l.37.05Zm.38-.44v.02l-.15.14c-.1.04-.1.04-.23.03l.05-.19h.33Zm.38-.77-.17.39-.6-.05.01-.03c.24-.1.46-.24.76-.3Zm-.3 1 .05-.04.06.2-.2-.04.08-.12Zm.49.57c-.23.09-.54.06-.72.16l-.04-.23.12-.15.57.22h.07Zm-.49.34-.26.01-.01-.08c.18-.07.48-.08.76-.1-.1.04-.2.1-.29.15l-.2.02Zm.68 0c-.22.06-.43.25-.57.4-.03-.18.3-.48.47-.58.07.06.08.06.1.18Zm.38-2.29v.03l-.23.14-.34.02v-.03l.57-.16Zm-.31.58-.07-.11c.17-.15.55-.07.76-.05l-.69.16Zm1.7-.57c.32.03.6.1.83.24h.05l-.03.04-.3.1-.55-.08-1.2-.18v-.02c.39-.09.81-.13 1.2-.1Zm1.26-.1-.07.09a.92.92 0 0 1-.5-.2l.57.08v.03Zm1.01.7.16-.05.16.14c-.02.16-.18.29-.3.45h-.08c-.25-.4-.56-.85-1.11-1.01l-.03-.05.22-.09c.38.13.69.33 1.03.44.05.1.03.07-.05.18Zm.46.92-.04-.04h-.1l.16-.15-.02.19Zm.17 2.12c.25.22.32.54.21.96l-.33-.75.1-.16.02-.05Zm.07-1.73v.04l-.14.15-.05-.1c.08-.15.02-.07.13-.08h.06Zm.16 0 .6.22v.06l-.16.1-.6-.22v-.06l.16-.1Zm1.17.77-.33-.22-.05-.1c.14-.08.12-.08.28-.05l.1.37Zm.19-.08-.07.08c-.08-.04-.1-.1-.12-.2l.17.08.02.04Zm-.14-.55h-.05l.16-.14-.11.14Zm.9.97-.1.04-.5-.28-.16-.22c.26-.2.27.03.52.15l.24.31Zm.19.17-.2-.07.12-.06.08.13Zm-.23.3c.07.15.06.1.23.09l-.3.25a381.54 381.54 0 0 0-.27-.56c.2-.05.27.03.47.06l.08.12-.21.05Zm.04.35.38-.2c-.08.17-.18.25-.3.38l-.08-.18Zm.76.73c-.1.1-.17.12-.37.14l.16.02v.02l-.54.23-.01-.69.37-.43.06-.03.33.74Zm-.2-1.04c1.05-.3.85.26.38.68l-.37-.68Zm.96.1c-.39 1.82-.46 1.91-1.83 2.7l-.07-.12.05-.2c.89-.25 1.4-.72 1.34-1.77l.45-.57.06-.03Zm.04 0-.04-.18h.14l-.1.19Zm-2.32 1.77.01-.2.01-.18.14-.04h.01c.04.23 0 .4-.07.57-.06-.04-.08-.05-.1-.15Zm-.76 1.68v-.04a693.67 693.67 0 0 0 .3-.72l.44.03.02.1c.02.22-.06.4-.14.64l-.62-.01Zm.19.77v-.3l.01-.08.32.03h.05l-.22.36-.16-.01Zm-.19-1.25h.02l.15-.08h.02l-.02.07-.1.3-.07-.26v-.03Zm-.3.96-.08-.09c.08.06.03 0 .09.09Zm-.46-.23c.1-.07.22-.05.38-.04l-.05.15c-.13.05-.14.03-.3.02l-.03-.13Zm.23.72.15.35-.34.23c-.1-.14 0-.53.2-.58Zm-.37-1.2h-.05l.06-.14-.01.14Zm.55.05-.03-.02.08-.17h.03l.08.18h-.16Zm1.3-2.5v-.06c.05-.06.08-.1.17-.13l.02.12-.11.07h-.07Zm0 .47c-.04.05-.1.07-.14.1l-.05-.95.19.85Zm-.35 1.29c.13-.07.14 0 .16.16h-.38v-.06l.22-.1Zm-.19-.53.09-.08.07.13-.03.07-.16-.02.03-.1Zm-.03.5-.2.2-.13-.03h-.05l.1-.17h.28Zm-.72-.1c-.08-.06-.02-.05-.03-.1 0 .04.02.07.03.1Zm.6-.86-.64-.33c.03-.44.08-.94.04-1.4.5.18.94.98.6 1.73Zm-.45 0c.16.08.15.16.37.23.04.14-.02.2-.11.35l-.24-.01c-.04-.26 0-.4-.02-.57Zm.04 1.24c-.08-.05-.02-.05-.03-.09l.03.1Zm1.29-1.85v-.03l.17-.13c.03.2.02.53-.02.77-.1-.08-.12-.41-.15-.6Zm0 .61.11-.2-.06.2h-.05Zm1.1-.57h.04c0 .73-.45.86-1.05 1.14h-.1l.38-.76.73-.38Zm-1.12-1.44.02.06-.05.03-.14-.19.17.1Zm-.17.32v-.03h.05l.14.19c-.11-.06-.13-.07-.2-.16Zm.19.5-.26.23-.55-.8-.71-.61.16-.12c.34.15.95.43 1.07.78.04.12-.1.21 0 .3.1.12.21.04.29.21Zm-1.6 1.2.05.01.03.56-.09-.02c-.08-.07-.14-.35-.06-.47l.07-.09Zm-.42.95h.06l.06.15-.1.04h-.09l.07-.19Zm-.18 3.07-.08-.28.35-.1h.03v.02l-.3.36Zm-.27-.77c.04-.1.06-.13.12-.19l.06.02.01.05-.12.12h-.07Zm.1.2-.1-.1.2-.1-.06.2h-.05Zm-.2.87-.09-.07h.06l.3-.23.02.23-.22.15-.08-.08Zm0 2.2c-.45.01-.72-.1-1.1-.14l-.42-.84-.09-.08c.72-.09 1.17-.43 1.7-.67.2.18.62 1.09.24 1.49-.09.14-.19.15-.32.23Zm-1.96-.95.18-.01c.25.17.43.48.55.76l-.76-.22a.89.89 0 0 0 .03-.53Zm-.54-.73.85-.24 1.35.13.02.07c-.4.18-.85.33-1.31.56-.5.04-.62-.15-.96-.27l.05-.25Zm-.05.9.01-.16.33-.02c.03.14.06.22.01.38l-.35-.2Zm-.38.3.12-.06c.16-.1.28.03.45.09l-.07.06-.5-.08Zm.36-.3-.12-.05-.05-.13h.19l-.02.19Zm-.55 0 .19.17c0 .1-.01.09-.04.22l-.15-.38Zm-.5-.71c.18-.06.42-.04.69-.05l-.25.2-.51-.06.07-.1Zm-.45-9.62c.35-.33 1.23-.23 1.46-.02h.06c-.3.27-.76.3-1.04.57-.22-.14-.4-.24-.48-.55Zm1.94.55.14.17-.4.03c-.32.02-.63.07-.85.18h-.03l-.04-.07a2.72 2.72 0 0 1 1.15-.3h.03Zm.73-.96c.25.25.62.4.74.77-.51-.24-1.3-.24-1.7-.62.35.08.65.05.96-.15Zm.17 1.35.7.1.06-.01-.56.48c-.09-.18-.11-.42-.2-.57Zm.9.82-.14-.03c.07 0 .13-.02.2-.03l-.05.06Zm-.14-.46.18-.17.01.19-.12-.03h-.07Zm.35 6.35h-.09l-.07-.07.06-.07.13-.05-.03.19Zm-.15.35.07-.08v-.08l.11.18-.19.02v-.04Zm-.08.61-.12-.14.38-.05-.18.19h-.08Zm.07.58-.38-.05.27-.15.11.2Zm-.26-.54.07.07-.27.07-.3.01.41-.19.09.04Zm-1.07-8.3c.23.02.46.07.57.2-.15-.01-.42.01-.5-.1l-.07-.1Zm.2.78c.1.1.14.2.12.38-.16-.06-.12-.24-.12-.38Zm.18 1.2v-.03c.39-.08.47.05.3.17-.15-.02-.22-.08-.3-.13Zm.49 4.94.08.02v.02l-.19.15.08-.19h.03Zm-.1-4.68.14-.12.04.2-.19-.05v-.03Zm.56 5.13-.46.12h-.1v-.02a.81.81 0 0 0 .38-.17l.16.03.02.04Zm-.32-.45-.06-.1.13-.1.06.04-.07.15h-.06Zm-1.2 1.32.23-.17.7.06.02.05c-.15.1-.31.18-.47.27a.7.7 0 0 1-.42-.21h-.06Zm-.35.02.35.2-.56-.1.21-.1Zm-.03.4v.04l-.1.06h-.08v-.04c.08-.1.07-.07.18-.07Zm-.89-7.82a5.2 5.2 0 0 0-.05-.05c.18-.1.48-.16.77-.18.25-.02.48-.02.65-.02l.1.57c-.25-.03-.5-.06-.75-.07-.2-.01-.42 0-.66.02l-.06-.27Zm.28 7.7.05.08-.05.18-.52.04c.05-.17.14-.26.23-.39l.29.1Zm-.65-.66c-.24-.02-.56-.19-.63-.39l.76.2-.13.19Zm.27-.01h-.14v-.04l.16-.14-.02.18Zm-.52-7.02.23-.07.15.18h-.16l-.22-.11Zm0 8.24-.04.12-.06.01-.1-.2.2.03v.04Zm.1-.83.44.09.03.06-.35.43-.41-.06.29-.52Zm3.31-6.01.09-.13h.03l.24.06.02.03-.26.1-.12-.06Zm.52-.62-.14-.09c.14.05.06 0 .14.09Zm-.05.87-.09-.07.2-.12-.1.2Zm-.09 1.35.3.07c.08.03.07.04.08.12-.13-.05-.34-.08-.38-.2Zm.03-.53.04-.05.12.2-.19-.04.03-.1Zm-3.84 6.32.02.05-.26.1h-.12v-.02l.09-.14c.12-.05.12-.02.27 0Zm-.55-9.63c.16.12.2.27.18.77-.1-.14-.17-.44-.18-.77Zm.1-.38v.13l-.1.01.1-.14Zm-.1.19-.02.14-.17-.04.14-.1h.05Zm0 11.13.1-.98.66-.17-.7 1.11-.06.04Zm.04-2.63.1-.06c.1.11.02.27-.07.38-.07-.06-.08-.1-.06-.26l.03-.06Zm-.61-.1.22-.34.35.2-.36.56a.7.7 0 0 1-.21-.41Zm0 1.51.35-.32.16.02.06.09-.04.28-.53-.07Zm-.57-.26.42-.25.31.05.03.04-.34.3a.62.62 0 0 1-.36-.14h-.06Zm-.06-.37.16-.07.06.01.03.03-.44.15-.13-.04.32-.08Zm-.51-.18.11-.27c.2-.03.26.07.41.14l.05.07-.23.16h-.2l-.14-.1Zm-.38.79.28-.49c.18 0 .2.02.28.11.03.06 0 .03-.07.04l-.02.17.29.04c-.06.14-.07.12-.15.21-.28.02-.41-.04-.61-.08Zm-.32-.68.48.14.03.06-.31.37-.45-.14.25-.43Zm-1.86-.52v-.06l.28.21.02.05c-.56.44.3 1.84 1.27.93l.42.17c-.16.29-.44.4-.73.56-.7.06-1.67-1.08-1.26-1.86Zm.65.2.01.13-.15-.12-.04-.08.18.07Zm.96.81c-.11.1-.23.18-.35.27-.68.07-.95-.4-.98-.98l.14-.16h.05c.35.26.65.68 1.12.81l.02.06Zm-.66-2.8c-.06-.04-.07-.06-.1-.14l.13-.49.15-.13.1.14c-.1.2-.19.42-.28.63Zm-.1.17.3-.7.06-.04c.14.24.34.35.4.68l-.45.47a.9.9 0 0 1-.3-.4Zm.57.59.38-.37.2.38-.58-.01Zm.95-3.88c-.18.38-.42.64-.56 1.01-.06-.33.31-.82.43-1.11l.06-.04.07.14Zm0-1.05c.28-.1.47-.25.67-.43l.09.26-.24.32-.52-.15Zm.95.02-.1.13-.1-.02.01-.02.17-.16.02.07Zm-.15-.83h.03l.12.25-.05.13c-.17-.09-.16-.2-.1-.38Zm-.04 5.56.18.13-.18-.08v-.05Zm0 .2.19.07v.03l-.4.28c-.12-.05-.14-.16-.17-.27v-.02l.38-.1Zm-.56-.39.18.07-.1.06h-.09v-.13Zm-.01-3.84c.23.07.16.02.17.2a.41.41 0 0 1-.17-.2Zm0 3.43.02-.17c.08.07.11.1.17.2l-.19-.03Zm.38-2.4c-.07.1-.07.07-.19.12l.08-.19.1.07Zm0-.77-.12.13c-.12-.07-.06-.05 0-.17l.06-.03.06.07Zm-.02-.33-.17-.12c.13.05.1.02.17.12Zm-.36 3.53.19.15c-.1 0-.15-.03-.19-.15Zm.57-.01h-.08l-.06-.12a5.58 5.58 0 0 1-.05-.06h.1l.09.18Zm-.1-3.55-.1-.09c.1.06.04 0 .1.09Zm0 3.16-.1-.2.05-.17h.02l.13.38-.1-.01Zm-.5 2.23c.02 0 .02.02.03.02l-.07.26a.52.52 0 0 1-.31-.39l.36.1Zm-.54.28.19.16c-.12-.05-.13-.05-.19-.16Zm.33-1.7.02.16-.16-.19c.05 0 .1.02.14.03Zm-.19.9-.14-.35c.17.06.3.25.38.38l-.24-.04Zm.15-3.42h.05l-.14.19c-.02-.05 0-.1.08-.15l.01-.04Zm-.1 1.65-.04.07-.1-.08-.05-.1.15-.01.04.12Zm-1.33 1.6c.38.25 1.03.48 1.14.97a3.24 3.24 0 0 1-1.14-.96Zm.99-.18.15.19-.38-.2.23.01Zm1.39.57-.3-.29.51-.48.07.53-.28.24Zm.28.32.05-.12h.07l.07.18-.2-.06Zm.25-.7-.06-.2.14.03-.08.17Zm-.25-6.46v-.02l.19-.05-.13.2-.06-.13Zm-1.91 3.96-.18-.38c.22.05.19.2.18.38Zm-.47.2a.77.77 0 0 1-.28-.58c.34.08.32.2.38.51l-.1.06Zm-.2-1c-.24-.23.12-1.15.27-1.36.08-.1.19-.1.32-.14l.1.02c-.24.4-.4.95-.45 1.51-.08 0-.16-.02-.24-.04Zm-.35 3.1.12.2-.1.24-.07.06c.09.02.1-.06.23-.16.25.4.63.78 1.04 1l-.23.4-.68-.45c-.08-.14.03-.3-.1-.4-.11-.08-.26.04-.37 0l-.33-.3c.1-.2.19-.41.38-.52l.11-.06Zm-.66-2.11a4.92 4.92 0 0 1 .14-.57l.1.57.05.3.45 1.24c-.36-.2-.58-.65-.55-1.26-.09.2-.01.5.02.68-.23-.19-.26-.56-.2-.96Zm-.32.2a.7.7 0 0 1-.07-.23v-.33l.04-.07.14-.14-.08.54-.03.23Zm13.2 1.92-.37-.15.37-.05v.2Zm-10.04 3.12.1-.05-.11.19.01-.14Zm-2.86-6.58-.16-.01a.65.65 0 0 1-.4-.56c.3.02.4.17.56.35v.22Zm-.02-.01c.02-.42-.3-.68-.7-.67.07-.58.57-.88 1.02-1.07h.1c-.08.72-.03 1.35-.3 1.98-.2.47-.92.46-.88 1.18v.06c.1.95 1.15 1.15 1.3 1.99-1.55.78.33 4.07 1.55 2.14.22.03.41.13.69.03.12-.07.15-.12.2-.27l.43.22.02.06c-.4.3-.68.73-1.1 1.02 0-.04.02-.07.03-.11l-.1-.02c-.03 0-.05.02-.07.03l-.05.26c.24.25.98-.65 1.2-.83-.12.43-.43.65-.6 1.04l.06.06c.32-.23.71-.88.77-1.37l.48.07c-.6.82-2.15 2.6-2.96 3.08.12-.39.32-.69.42-1h-.06a6.13 6.13 0 0 0-.05-.05c-.2.39-.52.66-.58 1.18.04.07.08.1.13.13.97-.16 2.58-2.58 3.35-3.24-.21 2.09-1.33 2.42-2.3 3.68.88-.44 1.42-1.56 2.17-2.19-.08.88-.29 2.83-.81 3.18l.08-.01c.6-.37.63-1.86.82-2.63l.08-.8.84-1.18.06-.03c.1.29.52.6.98.52l.33-.13.83.3c.11 1.2.07 1.86-.69 2.77.78-.4 1.06-1.91.8-2.72 1.8.21 1.72-.4 1.38-1.7h.32c-.06-.08-.22-.01-.34-.08-.05-.04-.04-.03-.07-.08.42-.48 1.45 0 1.23.8.3-.67-.35-1.25-.98-1.02.27-.32.6-.58.76-1l.06-.03 1.48 1.55.09-.01.06-.09-1.4-1.67a27.06 27.06 0 0 1 .4-.15l-.07-.04c.76.07 1.72.7 2.5.5.08-.13.08-.2.04-.32.84.02 2.34-.26 2.82-.66-1.29.27-2.74.36-3.92.2l-1.05-.12h-.06l.28-.5c.87-.02 3.13-.04 3.6-.58l-.1-.14-.4-.05c-.04.05-.04.1-.05.14l.31.04c-.68.17-2.57.53-3.19.32-.06-.08-.01-.36-.01-.55v-.1a2.58 2.58 0 0 0 1.81-1.77c.16-.51.06-1.2.39-1.51.21.02.26.1.41.17a.68.68 0 0 0-.35-.23l-.27.19c-.26.1-.53-.16-.96.04-.35-.3-.54-.77-1.02-.95l-.05-.08.58-.56a9.2 9.2 0 0 0-.57.53l-.39-.17-.02-.06c.44-.31.83-.42 1.33-.33l.07.14a.17.17 0 0 1-.07.06l-.16-.04c.07.04.14.05.22.07l.06-.06.01-.09c-.1-.1-.14-.17-.35-.17l.1-.15c-.25.16-.74.2-.99.35l.57-.44.06-.09-1.04.62a.96.96 0 0 1-.58-.24h-.05l1.23-.83-.02-.08-1.4.81-.45-.1.04-.41 3.22-2.52h.06l-.05-.12c-.12-.05-.61.34-.8.46-.7.46-1.34 1.03-2.04 1.44.3-.37.82-.73.9-1.27l-.13-.02-.22.2.24-.11a4.35 4.35 0 0 1-1.26 1.57l-.04-.1c.25-.44.5-1.02.39-1.58l-.22-.12-.23.01c.15.06.25.08.36.15.07.54-.2.9-.34 1.34a4 4 0 0 0-.06.03c-.1-.18-.1-.26-.29-.3l-.01-.1.13-.19.1-.06c.02.06.03.04.04.14.03-.05.03-.1.04-.15l-.11-.05-.29.31c-.24-.16-.5-.33-.85-.4.2-.4.78-1.04.48-1.54-.37-.62-1.63.1-2.1.58a.91.91 0 0 0-.14.18l.14-.1c.46-.34 1.67-1.16 1.94-.5.27.36-.26 1.05-.4 1.34-.5-.05-1-.1-1.54-.1-.53.02-1.08.09-1.64.27-.27.1-1.4.77-1.45.77l-.53-.5-1.09-.55v.05l-.07.06 1.4 1.19-.21.13c-.58-.44-.97-.7-1.83-.93l-.14.01c.5.35 1 .66 1.5.98l.1.13c-.36.16-.5.47-.81.66a9.95 9.95 0 0 0-1.49-.6l-.04.12 1.08.69h.05l-.18.12c-.09.29-.25.62-.4 1.03-.53.44-1.23.4-1.33 1.3-.18.04-.3.06-.45.17l-.01.12c.1.14.96.5 1.17.54l.13-.12Zm6.37-6.14.08.01-.11-.01h-.05c.08-.16.33-.2.56-.18l-.01.11-.47.03v.04Zm.33.2.22-.07c.1-.16.15-.33.1-.49-.22-.04-.36.01-.57.1l-.12.2-.04.07.04.04c.07.06.16.08.32.07.05.08 0 .04-.08.06l.13.02Zm5.52 1.73-.24.04h.15l.16.07-.25.47c.13-.16.26-.27.32-.5l-.14-.08Zm-1.38 7.48c-.06-.1-.13-.17-.2-.19l.2.2Zm-.76 2.3-.19.12.15-.02.04-.1Zm.76-2.3c.2.22.34.64.3.96.21-.47-.04-.76-.3-.96Z"
fill="#fff"/>
</g><defs>
<clipPath id="a">
<rect width="24" height="24" rx="5" fill="#fff"/>
</clipPath>
</defs>
</svg>