<svg viewBox="0 0 28 18" fill="none" xmlns="http://www.w3.org/2000/svg"><path d="M0 0v18h28v-18h-28Zm4.11 17.7v-17.46h22.59v17.46h-22.59Z" fill="#000"/><path d="M4.11 17.7v-17.46h22.59v17.46h-22.59Z" fill="#69B42E"/><path d="M.57 16c0-1.22.86-1.51 1.53-1.51.6 0 1.5.25 1.5 1.52v1.65h-3.03v-1.65Zm2.28.5v-.23c0-.26-.08-.57-.77-.57-.7 0-.8.3-.8.57v.24h1.57Zm-1.52-3.38h.52v-.02c-.29-.08-.57-.32-.57-.68 0-.05 0-.12.02-.18h.91a.91.91 0 0 0-.03.23c0 .32.2.58.6.58h.83v1.09h-2.28v-1.02Zm1.44-.78v-.94h.84v.94h-.84Zm-.26-2.38v-.02l-1.93-.48v-1.11l1.93-.47v-.02l-1.93-.36v-1.03l3.03.72v1.24l-1.98.5v.02l1.98.48v1.27l-3.03.7v-1.08l1.93-.36Zm-1.94-6.28h.71v1.48h.44v-1.42h.7v1.42h.47v-1.51h.72v2.67h-3.04v-2.64Zm0-2.2c0-.95.5-1.12.79-1.12.35 0 .63.24.7.61h.01c.05-.3.25-.68.73-.68.76 0 .8.86.8 1.25v1.75h-3.03v-1.81Zm1.2.72v-.27c0-.4-.2-.44-.3-.44-.12 0-.29.1-.29.41v.3h.6Zm1.22 0v-.3c0-.37-.2-.43-.31-.43-.3 0-.3.36-.3.46v.27h.61Z" fill="#fff"/><path d="m10.63 8.09 4.78-2.63 4.76 2.63s.64 2.26-1.89 4.16c-2.51 1.9-3.22 1.88-5.77 0-2.54-1.88-1.88-4.16-1.88-4.16Z" fill="#000"/><path d="m15.38 4.46 3.3 1.78c.08-.22.12-.44.12-.68 0-1.4-1.52-2.52-3.4-2.52s-3.4 1.13-3.4 2.52c0 .23.04.45.12.66l3.26-1.76Zm5.75 5.14 2.63 1.53-4.94 5.79 2.3-7.32Zm.13-1.47-.3-1.27 5.08 1.44-3.15 1.63.44-1.32-2.07-.48Zm-.59-2.09-.67-.9 4.5-1.4-1.12 3.43-.46-1.57-2.25.44Zm-1.24-1.6-.94-.96 1.24-1.23-1.36-.81h3.6l-2.54 3Zm-9.76 5.16-2.63 1.53 4.93 5.79-2.3-7.32Zm-.13-1.47.3-1.27-5.08 1.44 3.14 1.63-.43-1.32 2.07-.48Zm.59-2.09.67-.9-4.5-1.4 1.12 3.43.46-1.57 2.25.44Zm1.23-1.6.95-.96-1.24-1.23 1.36-.81h-3.6l2.53 3Z" fill="#000"/><path d="M14 11.4h2.8l.22-.64h-3.24l.22.64Zm.74 2.16c.46.13.88.14 1.33 0l.15-.44h-1.63l.15.44Zm-.34-.99h2l.22-.63h-2.43l.21.63Zm-.8-2.35h3.6l.22-.63h-4.04l.22.63Zm3.54-3.8-.4 1.67h-.01l-.63-1.69h-1.35l-.6 1.7h-.01l-.46-1.69-1.16.64.68 2h1.6l.6-1.73h.02l.6 1.73h1.59l.68-2-1.15-.63Z" fill="#fff"/></svg>