<svg viewBox="0 0 24 24" fill="none" xmlns="http://www.w3.org/2000/svg"><path d="M24 20.49a3.5 3.5 0 0 1-3.5 3.51h-17a3.5 3.5 0 0 1-3.5-3.51v-16.98a3.5 3.5 0 0 1 3.5-3.51h17a3.5 3.5 0 0 1 3.5 3.51v16.98Z" fill="#FAAB62"/><path d="M23.88 20.4a3.47 3.47 0 0 1-3.46 3.48h-16.84a3.47 3.47 0 0 1-3.46-3.48v-16.8a3.47 3.47 0 0 1 3.46-3.48h16.84a3.47 3.47 0 0 1 3.46 3.48v16.8Z" fill="#F7931E"/><path d="M11.99 3.59a4.32 4.32 0 0 0-4.31 4.33 4.31 4.31 0 0 0 4.3 4.32 4.32 4.32 0 0 0 0-8.66Zm0 6.12c-.99 0-1.78-.8-1.78-1.8a1.78 1.78 0 1 1 3.56.01c0 .98-.8 1.79-1.78 1.79Zm1.51 5.98a6.99 6.99 0 0 0 2.82-1.22c.5-.4.58-1.15.18-1.65-.4-.51-1.14-.6-1.65-.19 0 .01-1.1.86-2.92.86a5.2 5.2 0 0 1-2.95-.86 1.18 1.18 0 0 0-1.47 1.84 7.1 7.1 0 0 0 2.9 1.23l-2.46 2.6a1.18 1.18 0 0 0 .84 2c.3 0 .61-.13.84-.37l2.3-2.46 2.52 2.48c.46.46 1.2.46 1.66 0 .46-.46.46-1.2 0-1.67l-2.6-2.6Z" fill="#fff"/></svg>