<svg viewBox="0 0 24 24" fill="none" xmlns="http://www.w3.org/2000/svg"><path d="M0 6a6 6 0 0 1 6-6h12a6 6 0 0 1 6 6v12a6 6 0 0 1-6 6h-12a6 6 0 0 1-6-6v-12Z" fill="#172037"/><path d="m15.41 13.62.26-.05c.85-.2 1.41-.7 1.58-1.58.16-.89.16-1.8.03-2.7a2 2 0 0 0-1.48-1.73 3.96 3.96 0 0 0-1.18-.14h-8.11c-.15 0-.2.03-.2.19v8.83c0 .15.04.19.18.18h1.92c.16 0 .2-.03.2-.2v-2.55c0-.21.06-.25.26-.25h3.95c.16 0 .25.05.34.19l1.78 2.65c.07.12.15.17.3.16h2.17c.06 0 .12.02.19-.04l-2.19-2.96Zm-.39-2.47c-.03.24-.16.38-.4.42l-.42.03h-5.37c-.17 0-.23-.02-.22-.2v-1.73c0-.2.06-.23.23-.23h2.76l2.54.01c.14 0 .29 0 .42.03.33.06.45.18.47.51.03.39.05.78 0 1.16Z" fill="#fff"/><path d="M18.04 5.18c.65 0 1.17.53 1.17 1.17a1.2 1.2 0 0 1-1.18 1.18 1.2 1.2 0 0 1-1.18-1.2c0-.64.54-1.15 1.19-1.15Z" fill="#E62244"/></svg>