<svg viewBox="0 0 24 24" fill="none" xmlns="http://www.w3.org/2000/svg"><path d="M12 24a12 12 0 1 0 0-24 12 12 0 0 0 0 24Z" fill="#2AABEE"/><path fill-rule="evenodd" clip-rule="evenodd" d="M5.43 11.87a570.9 570.9 0 0 1 7-3.01c3.33-1.39 4.03-1.63 4.48-1.64.1 0 .32.03.46.14.12.1.16.23.17.33.02.1.04.3.02.47-.18 1.9-.96 6.5-1.36 8.63-.17.9-.5 1.2-.82 1.23-.7.06-1.22-.46-1.9-.9-1.05-.7-1.65-1.13-2.68-1.8-1.18-.78-.41-1.21.26-1.91.18-.19 3.25-2.98 3.3-3.23.02-.04.02-.15-.05-.22-.07-.06-.17-.04-.25-.02-.1.02-1.79 1.14-5.06 3.35a2.4 2.4 0 0 1-1.3.48 8.54 8.54 0 0 1-1.86-.45c-.76-.24-1.35-.37-1.3-.78.03-.22.32-.44.9-.67Z" fill="#fff"/><defs><linearGradient id="a" x1="12" y1="0" x2="12" y2="23.822" gradientUnits="userSpaceOnUse"><stop stop-color="#2AABEE"/><stop offset="1" stop-color="#229ED9"/></linearGradient></defs></svg>