<svg viewBox="0 0 24 24" fill="none" xmlns="http://www.w3.org/2000/svg"><g clip-path="url(#a)"><path d="M23.52 6.19a3.02 3.02 0 0 0-2.12-2.14c-1.88-.5-9.38-.5-9.38-.5s-7.5 0-9.37.5a3.02 3.02 0 0 0-2.12 2.14c-.5 1.88-.5 5.81-.5 5.81s0 3.93.5 5.82a3.02 3.02 0 0 0 2.12 2.13c1.87.5 9.37.5 9.37.5s7.5 0 9.38-.5a3.01 3.01 0 0 0 2.12-2.13c.5-1.89.5-5.82.5-5.82s0-3.93-.5-5.81Z" fill="#FF0302"/><path d="M9.57 15.57v-7.14l6.27 3.57-6.27 3.57Z" fill="#FEFEFE"/></g><defs><clipPath id="a"><path fill="#fff" d="M0 0h24v24h-24z"/></clipPath></defs></svg>