<svg viewBox="0 0 24 24" fill="none" xmlns="http://www.w3.org/2000/svg"><path d="M14.31 14.31c-1.88 1.95-2.02 4.38-2.18 9.69 4.95 0 8.37-.02 10.14-1.73 1.71-1.77 1.73-5.35 1.73-10.14-5.31.17-7.74.3-9.69 2.18Zm-14.31-2.18c0 4.79.02 8.37 1.73 10.14 1.77 1.71 5.19 1.73 10.14 1.73-.17-5.31-.3-7.74-2.18-9.69-1.95-1.88-4.38-2.02-9.69-2.18Zm11.87-12.13c-4.94 0-8.37.02-10.14 1.73-1.71 1.77-1.73 5.35-1.73 10.14 5.31-.17 7.74-.3 9.69-2.18 1.88-1.95 2.02-4.38 2.18-9.69Zm2.44 9.69c-1.88-1.95-2.02-4.38-2.18-9.69 4.95 0 8.37.02 10.14 1.73 1.71 1.77 1.73 5.35 1.73 10.14-5.31-.17-7.74-.3-9.69-2.18Z" fill="#2C3036"/><path d="M24 12.13v-.26c-5.31-.17-7.74-.3-9.69-2.18-1.88-1.95-2.02-4.38-2.18-9.69h-.26c-.17 5.31-.3 7.74-2.18 9.69-1.95 1.88-4.38 2.02-9.69 2.18v.26c5.31.17 7.74.3 9.69 2.18 1.88 1.95 2.02 4.38 2.18 9.69h.26c.17-5.31.3-7.74 2.18-9.69 1.95-1.88 4.38-2.02 9.69-2.18Z" fill="#fff"/></svg>